<svg width="238" height="69" viewBox="0 0 238 69" fill="none" xmlns="http://www.w3.org/2000/svg">
<path d="M10.3137 4.68V10.32L7.41367 14H2.55367C1.46033 14 0.913666 11.8333 0.913666 7.5C0.913666 3.16667 1.46033 1 2.55367 1H7.41367L10.3137 4.68ZM6.77367 12.46L8.73367 9.66V5.24L6.79367 2.54H3.35367C2.79367 2.54 2.51367 4.19333 2.51367 7.5C2.51367 10.8067 2.79367 12.46 3.35367 12.46H6.77367Z" fill="#F6EBDF"/>
<path d="M17.7498 0.960001C17.7498 1.61333 17.4031 1.94 16.7098 1.94C16.0164 1.94 15.6698 1.61333 15.6698 0.960001C15.6698 0.32 16.0164 0 16.7098 0C17.4031 0 17.7498 0.32 17.7498 0.960001ZM18.9098 12.5C19.8431 12.5 20.3098 12.7467 20.3098 13.24C20.3098 13.7467 19.0431 14 16.5098 14C13.9764 14 12.7098 13.7467 12.7098 13.24C12.7098 12.7467 13.2431 12.5 14.3098 12.5C15.3764 12.5 15.9098 11.3333 15.9098 9C15.9098 6.66667 15.3764 5.5 14.3098 5.5C13.2431 5.5 12.7098 5.24667 12.7098 4.74C12.7098 4.24667 13.5098 4 15.1098 4C16.7098 4 17.5098 5.41333 17.5098 8.24C17.5098 11.08 17.9764 12.5 18.9098 12.5Z" fill="#F6EBDF"/>
<path d="M32.6659 4.84C32.6659 5.42667 32.2392 5.72 31.3859 5.72C30.6792 5.45333 30.3192 5.36 30.3059 5.44C30.2925 5.52 30.5525 5.8 31.0859 6.28V9.44L29.9659 11.38L28.0859 12.42C27.3392 12.42 26.5659 12.44 25.7659 12.48L24.7059 12.84V13.64L25.1659 14H29.4259L31.5059 15.48V17.58C31.5059 17.86 31.2392 18 30.7059 18C30.1725 18 29.9059 17.9267 29.9059 17.78V16.52L28.8059 15.54H23.1059V12.92L24.4859 12.12C25.1259 12.1333 25.0592 11.9933 24.2859 11.7L22.8259 9.62V6.86L23.9659 4.88L25.8659 3.8H27.6459C28.0325 3.94667 28.8992 4.00667 30.2459 3.98C31.1125 3.98 31.7325 4.05333 32.1059 4.2C32.4792 4.33333 32.6659 4.54667 32.6659 4.84ZM28.0059 10.92L29.4859 9.42V6.88L28.0059 5.36H25.9259L24.4259 6.86V9.42L25.9259 10.92H28.0059Z" fill="#F6EBDF"/>
<path d="M39.7419 0.960001C39.7419 1.61333 39.3953 1.94 38.7019 1.94C38.0086 1.94 37.6619 1.61333 37.6619 0.960001C37.6619 0.32 38.0086 0 38.7019 0C39.3953 0 39.7419 0.32 39.7419 0.960001ZM40.9019 12.5C41.8353 12.5 42.3019 12.7467 42.3019 13.24C42.3019 13.7467 41.0353 14 38.5019 14C35.9686 14 34.7019 13.7467 34.7019 13.24C34.7019 12.7467 35.2353 12.5 36.3019 12.5C37.3686 12.5 37.9019 11.3333 37.9019 9C37.9019 6.66667 37.3686 5.5 36.3019 5.5C35.2353 5.5 34.7019 5.24667 34.7019 4.74C34.7019 4.24667 35.5019 4 37.1019 4C38.7019 4 39.5019 5.41333 39.5019 8.24C39.5019 11.08 39.9686 12.5 40.9019 12.5Z" fill="#F6EBDF"/>
<path d="M51.478 5.5C50.158 5.5 49.498 6.34667 49.498 8.04V11.66L50.458 12.52C50.738 12.5067 51.038 12.5 51.358 12.5C51.678 12.5 52.018 12.5 52.378 12.5C53.0847 12.5 53.438 12.7467 53.438 13.24C53.438 13.7467 53.0847 14 52.378 14H49.718L47.898 12.32V8.04C47.898 6.34667 47.478 5.5 46.638 5.5C45.7847 5.5 45.358 5.24667 45.358 4.74C45.358 4.24667 45.7847 4 46.638 4C47.478 4 47.898 3.56667 47.898 2.7C47.898 1.83333 48.1647 1.4 48.698 1.4C49.2314 1.4 49.498 1.83333 49.498 2.7C49.498 3.56667 50.158 4 51.478 4C52.7847 4 53.438 4.24667 53.438 4.74C53.438 5.24667 52.7847 5.5 51.478 5.5Z" fill="#F6EBDF"/>
<path d="M63.9341 4C64.4675 4 64.7341 5.66667 64.7341 9C64.7341 12.3333 64.4941 14 64.0141 14C63.5341 14 63.2808 13.9267 63.2541 13.78L63.1341 12.42V11.34C63.1341 11.1133 63.1075 11.0667 63.0541 11.2C63.0008 11.3333 62.9208 11.6467 62.8141 12.14L61.2141 14.2H58.7341L56.9941 12.88L56.0141 10.52V7.52L57.0141 5.14L58.8541 3.8H61.3741L62.8541 5.52C62.9475 5.98667 63.0141 6.22 63.0541 6.22C63.1075 6.20667 63.1341 5.95333 63.1341 5.46C63.1341 4.48667 63.4008 4 63.9341 4ZM61.6341 12.66L63.1341 10.6V7.34L61.6341 5.36H58.8941L57.6141 7.32V10.66L58.9941 12.66H61.6341Z" fill="#F6EBDF"/>
<path d="M74.5702 12.5C75.2769 12.5 75.6302 12.7467 75.6302 13.24C75.6302 13.7467 75.2769 14 74.5702 14H71.9102L70.0902 12.32V6.04C70.0902 3.01333 69.6236 1.5 68.6902 1.5C67.7436 1.5 67.2702 1.24667 67.2702 0.74C67.2702 0.246667 67.7436 0 68.6902 0H70.8902C71.4236 0 71.6902 1.76667 71.6902 5.3V11.66L72.6502 12.52C72.9302 12.5067 73.2302 12.5 73.5502 12.5C73.8702 12.5 74.2102 12.5 74.5702 12.5Z" fill="#F6EBDF"/>
<path d="M48.7991 27.52C48.7724 27.8933 48.6524 28.1067 48.4391 28.16C48.2524 28.2133 48.0124 28.2267 47.7191 28.2C47.5857 28.2 47.4257 28.2 47.2391 28.2C47.0791 28.2 46.9191 28.2267 46.7591 28.28C44.7324 28.84 42.7057 29.5333 40.6791 30.36C38.6524 31.1867 36.7591 32.1467 34.9991 33.24C33.2391 34.3333 31.7191 35.56 30.4391 36.92C31.1057 38.12 31.8791 39.32 32.7591 40.52C33.6657 41.6933 34.5591 42.9333 35.4391 44.24C36.3457 45.52 37.1057 46.9067 37.7191 48.4C38.1724 49.44 38.4791 50.4933 38.6391 51.56C38.8257 52.6267 38.6924 53.72 38.2391 54.84C37.8124 55.32 37.3591 55.7733 36.8791 56.2C36.6391 56.1733 36.3991 56.1867 36.1591 56.24C35.9457 56.32 35.7324 56.4 35.5191 56.48C35.2524 56.56 34.9857 56.6267 34.7191 56.68C34.4524 56.76 34.1724 56.7733 33.8791 56.72C33.6391 56.6667 33.4257 56.5733 33.2391 56.44C33.0524 56.3067 32.8391 56.1867 32.5991 56.08C31.5324 55.68 30.3724 55.2933 29.1191 54.92C27.8924 54.5467 26.8524 54.04 25.9991 53.4C25.2257 53.32 24.5857 53.12 24.0791 52.8C23.5724 52.48 23.0791 52.1467 22.5991 51.8C22.1457 51.4267 21.5724 51.12 20.8791 50.88C20.5857 50.64 20.5457 50.3067 20.7591 49.88C20.9724 49.4533 21.2257 49.0133 21.5191 48.56C21.6257 48.4 21.7057 48.28 21.7591 48.2C22.1057 48.6 22.5457 48.9067 23.0791 49.12C23.6124 49.3333 24.0524 49.6267 24.3991 50C24.6124 49.9467 24.9057 50.0133 25.2791 50.2C25.6524 50.36 26.0124 50.5467 26.3591 50.76C26.7324 50.9733 26.9991 51.1467 27.1591 51.28C28.1724 51.52 29.3324 51.8133 30.6391 52.16C31.9724 52.48 33.2657 52.6533 34.5191 52.68C34.8124 52.4933 34.9857 52.2 35.0391 51.8C35.0924 51.3733 35.0924 50.88 35.0391 50.32C34.9057 49.0667 34.5724 47.92 34.0391 46.88C33.5057 45.84 32.8924 44.8533 32.1991 43.92C31.5324 42.96 30.8791 42.0133 30.2391 41.08C30.1591 40.9733 30.0791 40.8667 29.9991 40.76C29.9457 40.6533 29.8657 40.5333 29.7591 40.4C29.3324 39.7867 28.9191 39.12 28.5191 38.4C28.1191 37.68 27.8657 36.92 27.7591 36.12C27.6524 35.32 27.8391 34.48 28.3191 33.6C29.9457 32.16 31.8524 31.0133 34.0391 30.16C36.2257 29.3067 38.5857 28.68 41.1191 28.28C43.6524 27.8533 46.2124 27.6 48.7991 27.52Z" fill="#F6EBDF"/>
<path d="M69.0391 44.64C69.0391 44.6667 68.9991 44.7467 68.9191 44.88C68.7857 45.0933 68.5991 45.4133 68.3591 45.84C68.1457 46.24 67.9457 46.6667 67.7591 47.12C67.5991 47.5467 67.5191 47.9067 67.5191 48.2C67.4124 48.1733 67.2657 48.28 67.0791 48.52C66.8924 48.76 66.7191 49.0133 66.5591 49.28C66.4257 49.52 66.3591 49.6933 66.3591 49.8C65.9857 50.2 65.6257 50.6667 65.2791 51.2C64.9591 51.7067 64.5991 52.1867 64.1991 52.64C63.8257 53.0667 63.3457 53.36 62.7591 53.52C62.5991 53.7333 62.3724 53.9867 62.0791 54.28C61.7857 54.5467 61.5057 54.64 61.2391 54.56C60.9991 54.9333 60.6257 55.2 60.1191 55.36C59.6124 55.52 59.1191 55.6533 58.6391 55.76C58.1857 55.84 57.8924 56.0133 57.7591 56.28C57.4924 56.2 57.2657 56.1733 57.0791 56.2C56.8924 56.2533 56.7057 56.3067 56.5191 56.36C56.4124 56.4133 56.3057 56.4533 56.1991 56.48C56.1191 56.5067 56.0124 56.5333 55.8791 56.56C55.0791 56.2933 54.4124 56.0267 53.8791 55.76C53.3457 55.4933 52.9191 55.0133 52.5991 54.32C52.6791 54.1867 52.6924 54.0267 52.6391 53.84C52.6124 53.6267 52.5724 53.4133 52.5191 53.2C52.4391 52.9333 52.3724 52.68 52.3191 52.44C52.2924 52.2 52.3591 52.0267 52.5191 51.92C52.2257 51.04 52.1324 50.2 52.2391 49.4C52.3724 48.5733 52.5457 47.72 52.7591 46.84C52.8924 46.3867 53.0124 45.9067 53.1191 45.4C53.2257 44.8933 53.3191 44.36 53.3991 43.8C53.5324 43.72 53.6524 43.68 53.7591 43.68C53.9724 42.5067 54.4524 41.4133 55.1991 40.4C55.9724 39.3867 56.7057 38.44 57.3991 37.56C57.5857 37.5333 57.7724 37.4933 57.9591 37.44C58.1457 37.36 58.3324 37.2933 58.5191 37.24C58.9991 37.0533 59.4524 36.9333 59.8791 36.88C60.3057 36.8 60.6391 36.9867 60.8791 37.44C61.0657 37.3867 61.3857 37.3733 61.8391 37.4C62.3191 37.4267 62.8124 37.48 63.3191 37.56C63.8257 37.6133 64.1857 37.6933 64.3991 37.8C64.7457 37.9333 65.1591 38.16 65.6391 38.48C66.1191 38.7733 66.5724 39.08 66.9991 39.4C67.4524 39.72 67.7857 40.0133 67.9991 40.28C68.2124 40.4667 68.3857 40.72 68.5191 41.04C68.6524 41.36 68.7324 41.6667 68.7591 41.96C68.8924 41.96 68.9857 42.1733 69.0391 42.6C69.0924 43 69.1191 43.4267 69.1191 43.88C69.1191 44.3067 69.0924 44.56 69.0391 44.64ZM65.9191 43.2C65.7857 43.12 65.5857 43 65.3191 42.84C65.0791 42.68 64.8791 42.48 64.7191 42.24C64.5591 42 64.5191 41.7333 64.5991 41.44C64.3857 41.4667 64.2257 41.4533 64.1191 41.4C64.0124 41.3467 63.9191 41.28 63.8391 41.2C63.8124 41.1733 63.7857 41.16 63.7591 41.16C63.4124 40.8667 62.9457 40.6533 62.3591 40.52C61.7724 40.3867 61.1457 40.2667 60.4791 40.16C59.8391 40.0533 59.2257 39.92 58.6391 39.76C57.8391 40.6667 57.1324 41.8667 56.5191 43.36C55.9324 44.8267 55.5057 46.3867 55.2391 48.04C54.9724 49.6667 54.8924 51.2 54.9991 52.64C55.1324 52.72 55.2657 52.7733 55.3991 52.8C55.5324 52.8 55.6791 52.7867 55.8391 52.76C55.9457 52.76 56.0657 52.76 56.1991 52.76C56.3324 52.76 56.4657 52.7733 56.5991 52.8C56.6257 52.9867 56.7191 53.12 56.8791 53.2C57.0657 53.28 57.1857 53.24 57.2391 53.08C57.5591 52.84 58.0124 52.52 58.5991 52.12C59.2124 51.72 59.7324 51.36 60.1591 51.04C60.2391 51.04 60.3591 51.04 60.5191 51.04C60.7857 51.0133 61.0657 50.9867 61.3591 50.96C61.6524 50.9333 61.8657 50.84 61.9991 50.68C61.9457 50.6267 61.8524 50.5867 61.7191 50.56C61.6124 50.5333 61.5191 50.5067 61.4391 50.48C61.3857 50.4267 61.3724 50.32 61.3991 50.16C61.7191 50.08 62.0791 49.8133 62.4791 49.36C62.9057 48.9067 63.3057 48.4533 63.6791 48C64.0791 47.52 64.3857 47.2533 64.5991 47.2C64.5724 46.96 64.6124 46.7467 64.7191 46.56C64.8524 46.3467 64.9991 46.1333 65.1591 45.92C65.3191 45.7067 65.4524 45.4933 65.5591 45.28C65.6924 45.04 65.6657 44.8 65.4791 44.56C65.7457 44.48 65.8924 44.36 65.9191 44.2C65.9457 44.04 65.9457 43.8533 65.9191 43.64C65.8924 43.4533 65.8924 43.3067 65.9191 43.2ZM57.8791 39.92C57.7991 39.8933 57.7591 39.8267 57.7591 39.72C57.7591 39.6133 57.6791 39.5733 57.5191 39.6C56.8524 40.5333 56.3591 41.4667 56.0391 42.4C55.7457 43.3067 55.3591 44.36 54.8791 45.56C54.9324 45.5867 54.9857 45.6533 55.0391 45.76C55.0657 45.8133 55.0924 45.8533 55.1191 45.88C55.1724 45.88 55.2524 45.8133 55.3591 45.68C55.4924 45.0933 55.7191 44.4533 56.0391 43.76C56.3591 43.0667 56.6924 42.3867 57.0391 41.72C57.3857 41.0267 57.6657 40.4267 57.8791 39.92Z" fill="#F6EBDF"/>
<path d="M101.574 41.08C101.601 42.1733 101.601 43.1467 101.574 44C101.548 44.8533 101.521 45.6533 101.494 46.4C101.441 47.2 101.401 47.9733 101.374 48.72C101.374 49.4667 101.401 50.2667 101.454 51.12C101.348 51.44 101.268 51.8667 101.214 52.4C101.161 52.9067 101.148 53.4 101.174 53.88C101.201 54.36 101.254 54.7333 101.334 55C101.174 55.2667 100.961 55.4267 100.694 55.48C100.428 55.5067 100.294 55.6933 100.294 56.04C100.081 55.9867 99.8277 55.9867 99.5344 56.04C99.241 56.0933 99.0277 56.16 98.8944 56.24C98.5744 56.2933 98.2677 56.1867 97.9744 55.92C97.681 55.6267 97.4544 55.28 97.2944 54.88C97.1344 54.4533 97.0544 54.0667 97.0544 53.72C97.0544 53.3733 97.1744 53.16 97.4144 53.08C97.4144 51.5867 97.481 50.1733 97.6144 48.84C97.7744 47.48 97.8944 46.0667 97.9744 44.6C98.0277 43.6933 97.9744 42.92 97.8144 42.28C97.681 41.6133 97.2944 41.1067 96.6544 40.76C96.3877 40.8667 96.081 41.0933 95.7344 41.44C95.3877 41.76 95.1344 42.0133 94.9744 42.2C94.681 42.2533 94.281 42.5733 93.7744 43.16C93.2677 43.7467 92.7477 44.44 92.2144 45.24C91.681 46.04 91.2144 46.8133 90.8144 47.56C90.4144 48.28 90.1877 48.8267 90.1344 49.2C89.7877 49.44 89.561 49.84 89.4544 50.4C89.3744 50.9333 89.321 51.5333 89.2944 52.2C89.2944 52.8667 89.241 53.4933 89.1344 54.08C89.0544 54.6667 88.8544 55.12 88.5344 55.44C88.0277 55.7067 87.5477 55.84 87.0944 55.84C86.641 55.8133 86.2144 55.7733 85.8144 55.72C85.6277 55.6933 85.4544 55.6667 85.2944 55.64C85.1344 55.6133 84.9744 55.6 84.8144 55.6C84.9744 55.12 85.161 54.4933 85.3744 53.72C85.5877 52.92 85.7477 52.1467 85.8544 51.4C85.961 50.6267 85.921 50.0667 85.7344 49.72C86.1344 48.76 86.3477 47.6533 86.3744 46.4C86.401 45.1467 86.3877 43.9733 86.3344 42.88C86.3344 42.6933 86.3344 42.56 86.3344 42.48C86.3077 41.7867 86.1877 41.2267 85.9744 40.8C85.7877 40.3467 85.601 39.9467 85.4144 39.6C85.3344 39.4933 85.201 39.4667 85.0144 39.52C84.8277 39.5733 84.6677 39.6533 84.5344 39.76C84.0544 40.6133 83.401 41.52 82.5744 42.48C81.7744 43.4133 80.9477 44.3867 80.0944 45.4C79.241 46.3867 78.5077 47.4133 77.8944 48.48C77.3877 49.36 76.9744 50.3067 76.6544 51.32C76.3344 52.3333 75.961 53.3333 75.5344 54.32C75.1344 55.28 74.561 56.12 73.8144 56.84C73.4944 56.28 73.361 55.68 73.4144 55.04C73.4677 54.4 73.601 53.76 73.8144 53.12C74.0544 52.48 74.2944 51.8933 74.5344 51.36C74.561 51.28 74.5877 51.2 74.6144 51.12C74.6677 51.04 74.7077 50.96 74.7344 50.88C74.681 50.4533 74.7744 49.9467 75.0144 49.36C75.281 48.7733 75.561 48.1867 75.8544 47.6C76.0944 47.1467 76.3077 46.72 76.4944 46.32C76.681 45.8933 76.801 45.52 76.8544 45.2C77.121 44.8267 77.441 44.36 77.8144 43.8C78.2144 43.2133 78.561 42.6667 78.8544 42.16C79.1477 41.6533 79.281 41.3467 79.2544 41.24C79.441 40.68 79.761 40.2133 80.2144 39.84C80.6677 39.4667 81.1744 39.1067 81.7344 38.76C82.321 38.4133 82.841 38 83.2944 37.52C83.4544 37.4933 83.6277 37.4933 83.8144 37.52C84.001 37.52 84.1877 37.5333 84.3744 37.56C84.7477 37.5867 85.1077 37.6 85.4544 37.6C85.8277 37.5733 86.1077 37.4267 86.2944 37.16C86.481 37.2133 86.721 37.3467 87.0144 37.56C87.3344 37.7467 87.6277 37.9467 87.8944 38.16C88.161 38.3733 88.3344 38.56 88.4144 38.72C88.6544 39.1467 88.841 39.7067 88.9744 40.4C89.1344 41.0667 89.2544 41.72 89.3344 42.36C89.4144 43 89.481 43.5067 89.5344 43.88C90.2277 42.92 91.121 41.96 92.2144 41C93.3077 40.04 94.241 39.0667 95.0144 38.08C95.3344 38.0533 95.561 37.96 95.6944 37.8C95.8544 37.64 96.0144 37.48 96.1744 37.32C96.3344 37.16 96.601 37.0533 96.9744 37C97.1877 36.9733 97.4544 36.9867 97.7744 37.04C98.121 37.0933 98.4277 37.2 98.6944 37.36C98.961 37.4933 99.0944 37.6933 99.0944 37.96C99.6544 38.1467 100.041 38.44 100.254 38.84C100.494 39.2133 100.681 39.6133 100.814 40.04C100.974 40.44 101.228 40.7867 101.574 41.08Z" fill="#F6EBDF"/>
<path d="M135.09 41.08C135.117 42.1733 135.117 43.1467 135.09 44C135.063 44.8533 135.037 45.6533 135.01 46.4C134.957 47.2 134.917 47.9733 134.89 48.72C134.89 49.4667 134.917 50.2667 134.97 51.12C134.863 51.44 134.783 51.8667 134.73 52.4C134.677 52.9067 134.663 53.4 134.69 53.88C134.717 54.36 134.77 54.7333 134.85 55C134.69 55.2667 134.477 55.4267 134.21 55.48C133.943 55.5067 133.81 55.6933 133.81 56.04C133.597 55.9867 133.343 55.9867 133.05 56.04C132.757 56.0933 132.543 56.16 132.41 56.24C132.09 56.2933 131.783 56.1867 131.49 55.92C131.197 55.6267 130.97 55.28 130.81 54.88C130.65 54.4533 130.57 54.0667 130.57 53.72C130.57 53.3733 130.69 53.16 130.93 53.08C130.93 51.5867 130.997 50.1733 131.13 48.84C131.29 47.48 131.41 46.0667 131.49 44.6C131.543 43.6933 131.49 42.92 131.33 42.28C131.197 41.6133 130.81 41.1067 130.17 40.76C129.903 40.8667 129.597 41.0933 129.25 41.44C128.903 41.76 128.65 42.0133 128.49 42.2C128.197 42.2533 127.797 42.5733 127.29 43.16C126.783 43.7467 126.263 44.44 125.73 45.24C125.197 46.04 124.73 46.8133 124.33 47.56C123.93 48.28 123.703 48.8267 123.65 49.2C123.303 49.44 123.077 49.84 122.97 50.4C122.89 50.9333 122.837 51.5333 122.81 52.2C122.81 52.8667 122.757 53.4933 122.65 54.08C122.57 54.6667 122.37 55.12 122.05 55.44C121.543 55.7067 121.063 55.84 120.61 55.84C120.157 55.8133 119.73 55.7733 119.33 55.72C119.143 55.6933 118.97 55.6667 118.81 55.64C118.65 55.6133 118.49 55.6 118.33 55.6C118.49 55.12 118.677 54.4933 118.89 53.72C119.103 52.92 119.263 52.1467 119.37 51.4C119.477 50.6267 119.437 50.0667 119.25 49.72C119.65 48.76 119.863 47.6533 119.89 46.4C119.917 45.1467 119.903 43.9733 119.85 42.88C119.85 42.6933 119.85 42.56 119.85 42.48C119.823 41.7867 119.703 41.2267 119.49 40.8C119.303 40.3467 119.117 39.9467 118.93 39.6C118.85 39.4933 118.717 39.4667 118.53 39.52C118.343 39.5733 118.183 39.6533 118.05 39.76C117.57 40.6133 116.917 41.52 116.09 42.48C115.29 43.4133 114.463 44.3867 113.61 45.4C112.757 46.3867 112.023 47.4133 111.41 48.48C110.903 49.36 110.49 50.3067 110.17 51.32C109.85 52.3333 109.477 53.3333 109.05 54.32C108.65 55.28 108.077 56.12 107.33 56.84C107.01 56.28 106.877 55.68 106.93 55.04C106.983 54.4 107.117 53.76 107.33 53.12C107.57 52.48 107.81 51.8933 108.05 51.36C108.077 51.28 108.103 51.2 108.13 51.12C108.183 51.04 108.223 50.96 108.25 50.88C108.197 50.4533 108.29 49.9467 108.53 49.36C108.797 48.7733 109.077 48.1867 109.37 47.6C109.61 47.1467 109.823 46.72 110.01 46.32C110.197 45.8933 110.317 45.52 110.37 45.2C110.637 44.8267 110.957 44.36 111.33 43.8C111.73 43.2133 112.077 42.6667 112.37 42.16C112.663 41.6533 112.797 41.3467 112.77 41.24C112.957 40.68 113.277 40.2133 113.73 39.84C114.183 39.4667 114.69 39.1067 115.25 38.76C115.837 38.4133 116.357 38 116.81 37.52C116.97 37.4933 117.143 37.4933 117.33 37.52C117.517 37.52 117.703 37.5333 117.89 37.56C118.263 37.5867 118.623 37.6 118.97 37.6C119.343 37.5733 119.623 37.4267 119.81 37.16C119.997 37.2133 120.237 37.3467 120.53 37.56C120.85 37.7467 121.143 37.9467 121.41 38.16C121.677 38.3733 121.85 38.56 121.93 38.72C122.17 39.1467 122.357 39.7067 122.49 40.4C122.65 41.0667 122.77 41.72 122.85 42.36C122.93 43 122.997 43.5067 123.05 43.88C123.743 42.92 124.637 41.96 125.73 41C126.823 40.04 127.757 39.0667 128.53 38.08C128.85 38.0533 129.077 37.96 129.21 37.8C129.37 37.64 129.53 37.48 129.69 37.32C129.85 37.16 130.117 37.0533 130.49 37C130.703 36.9733 130.97 36.9867 131.29 37.04C131.637 37.0933 131.943 37.2 132.21 37.36C132.477 37.4933 132.61 37.6933 132.61 37.96C133.17 38.1467 133.557 38.44 133.77 38.84C134.01 39.2133 134.197 39.6133 134.33 40.04C134.49 40.44 134.743 40.7867 135.09 41.08Z" fill="#F6EBDF"/>
<path d="M158.806 45.24C158.832 45.72 158.659 46.12 158.286 46.44C157.912 46.7333 157.432 46.9733 156.846 47.16C156.286 47.3467 155.699 47.48 155.086 47.56C154.472 47.64 153.939 47.6933 153.486 47.72C152.872 47.7467 152.312 47.7067 151.806 47.6C151.326 47.4933 150.846 47.3867 150.366 47.28C150.232 47.2533 150.099 47.2267 149.966 47.2C149.832 47.1467 149.699 47.1067 149.566 47.08C148.979 46.9467 148.312 46.8267 147.566 46.72C146.846 46.5867 146.272 46.3867 145.846 46.12C145.606 46.3867 145.446 46.7867 145.366 47.32C145.286 47.8267 145.272 48.3733 145.326 48.96C145.406 49.52 145.539 50.0267 145.726 50.48C145.939 50.9067 146.192 51.16 146.486 51.24C146.859 51.2933 147.179 51.4267 147.446 51.64C147.739 51.8267 148.019 52.04 148.286 52.28C148.632 52.5733 148.992 52.8533 149.366 53.12C149.766 53.36 150.246 53.44 150.806 53.36C150.992 53.76 151.152 53.9733 151.286 54C151.446 54 151.606 53.9733 151.766 53.92C151.899 53.8667 152.006 53.84 152.086 53.84C152.459 53.9467 152.899 54.1733 153.406 54.52C153.912 54.8667 154.259 55.28 154.446 55.76C154.072 56.08 153.686 56.2533 153.286 56.28C152.886 56.3067 152.459 56.3067 152.006 56.28C151.686 56.2533 151.352 56.24 151.006 56.24C150.659 56.24 150.299 56.28 149.926 56.36C149.819 56.1467 149.619 56.0267 149.326 56C149.059 55.9467 148.766 55.8667 148.446 55.76C148.126 55.6533 147.846 55.4 147.606 55C146.672 54.7867 145.806 54.3067 145.006 53.56C144.206 52.7867 143.472 52.0533 142.806 51.36C142.699 50.9867 142.579 50.6267 142.446 50.28C142.339 49.9333 142.139 49.6667 141.846 49.48C141.899 49.1867 141.899 48.96 141.846 48.8C141.819 48.64 141.779 48.48 141.726 48.32C141.699 48.2667 141.672 48.2133 141.646 48.16C141.619 48.08 141.592 47.9867 141.566 47.88C141.886 46.6267 142.379 45.4 143.046 44.2C143.712 43 144.552 41.88 145.566 40.84C145.966 40.4133 146.446 39.9733 147.006 39.52C147.592 39.04 148.192 38.6133 148.806 38.24C149.446 37.8667 150.032 37.6533 150.566 37.6C150.779 37.5733 150.979 37.5867 151.166 37.64C151.379 37.6667 151.592 37.7067 151.806 37.76C152.072 37.84 152.339 37.9067 152.606 37.96C152.899 37.9867 153.192 37.9467 153.486 37.84C154.286 38.3467 155.032 38.84 155.726 39.32C156.419 39.8 156.832 40.48 156.966 41.36C157.392 41.5467 157.672 41.8933 157.806 42.4C157.966 42.88 158.179 43.32 158.446 43.72C158.179 43.9333 158.072 44.2267 158.126 44.6C158.206 44.9733 158.432 45.1867 158.806 45.24ZM154.766 44.52C154.846 44.1467 154.806 43.7867 154.646 43.44C154.486 43.0667 154.299 42.7067 154.086 42.36C153.952 42.12 153.832 41.9067 153.726 41.72C153.646 41.5067 153.592 41.3067 153.566 41.12C153.192 41.0667 152.899 40.9333 152.686 40.72C152.472 40.48 152.179 40.28 151.806 40.12C150.579 40.6533 149.419 41.36 148.326 42.24C147.259 43.0933 146.486 44.1333 146.006 45.36C146.646 45.2267 147.326 45.16 148.046 45.16C148.792 45.16 149.526 45.1733 150.246 45.2C150.992 45.2267 151.712 45.24 152.406 45.24C153.099 45.24 153.712 45.16 154.246 45C154.246 44.76 154.312 44.6533 154.446 44.68C154.606 44.7067 154.712 44.6533 154.766 44.52Z" fill="#F6EBDF"/>
<path d="M174.098 30.8C174.045 30.9067 174.018 31.0133 174.018 31.12C174.018 31.1733 174.005 31.24 173.978 31.32C173.978 31.3733 173.938 31.44 173.858 31.52C173.885 32.2667 173.791 33.12 173.578 34.08C173.365 35.04 173.125 35.96 172.858 36.84C172.698 37.4267 172.551 37.9733 172.418 38.48C172.285 38.9867 172.205 39.4267 172.178 39.8C171.885 40.3067 171.698 40.8933 171.618 41.56C171.565 42.2 171.405 42.9467 171.138 43.8C171.085 43.9867 170.978 44.28 170.818 44.68C170.685 45.08 170.511 45.28 170.298 45.28C170.271 45.68 170.191 46.2133 170.058 46.88C169.951 47.52 169.831 48.1867 169.698 48.88C169.538 49.7333 169.391 50.5467 169.258 51.32C169.125 52.0667 169.071 52.6 169.098 52.92C169.125 53.1067 169.218 53.2667 169.378 53.4C169.538 53.5333 169.645 53.7067 169.698 53.92C170.205 54.1867 170.605 54.32 170.898 54.32C171.218 54.32 171.498 54.2933 171.738 54.24C171.978 54.1867 172.218 54.1733 172.458 54.2C172.698 54.2 173.018 54.36 173.418 54.68C173.445 54.84 173.431 54.9733 173.378 55.08C173.325 55.16 173.258 55.24 173.178 55.32C173.125 55.3733 173.071 55.44 173.018 55.52C172.965 55.5733 172.925 55.6533 172.898 55.76C172.658 55.7867 172.418 55.8267 172.178 55.88C171.965 55.9333 171.751 55.9867 171.538 56.04C170.978 56.1733 170.391 56.2667 169.778 56.32C169.165 56.4 168.418 56.2533 167.538 55.88C167.031 55.2667 166.605 54.6267 166.258 53.96C165.911 53.2667 165.831 52.3867 166.018 51.32C166.045 51.16 166.098 50.8267 166.178 50.32C166.285 49.7867 166.391 49.2667 166.498 48.76C166.631 48.2267 166.751 47.92 166.858 47.84C166.645 47.6267 166.551 47.44 166.578 47.28C166.605 47.12 166.671 46.9467 166.778 46.76C166.831 46.6 166.885 46.44 166.938 46.28C167.018 46.12 167.031 45.9467 166.978 45.76C167.165 45.68 167.325 45.4933 167.458 45.2C167.591 44.9067 167.685 44.6133 167.738 44.32C167.791 44 167.791 43.7733 167.738 43.64C168.005 42.84 168.285 41.8533 168.578 40.68C168.898 39.48 169.191 38.2533 169.458 37C169.725 35.72 169.925 34.56 170.058 33.52C170.191 32.4533 170.218 31.64 170.138 31.08C170.005 30.8133 169.791 30.68 169.498 30.68C169.205 30.68 168.871 30.72 168.498 30.8C168.045 30.88 167.525 30.9333 166.938 30.96C166.378 30.9867 165.805 30.8133 165.218 30.44C165.511 30.3867 165.791 30.3333 166.058 30.28C166.351 30.2 166.631 30.1333 166.898 30.08C167.965 29.84 168.911 29.6667 169.738 29.56C170.591 29.4533 171.365 29.48 172.058 29.64C172.778 29.8 173.458 30.1867 174.098 30.8Z" fill="#F6EBDF"/>
<path d="M188.914 51.76C188.7 52.2667 188.567 52.8 188.514 53.36C188.487 53.92 188.567 54.3467 188.754 54.64C188.354 55.0133 187.82 55.28 187.154 55.44C186.514 55.5733 185.86 55.6667 185.194 55.72C184.527 55.7733 183.94 55.88 183.434 56.04C183.114 55.9867 182.807 55.88 182.514 55.72C182.247 55.56 181.967 55.4133 181.674 55.28C181.46 54.88 181.34 54.32 181.314 53.6C181.287 52.8533 181.34 52.04 181.474 51.16C181.634 50.28 181.847 49.4133 182.114 48.56C182.114 48.5067 182.194 48.2 182.354 47.64C182.54 47.08 182.754 46.4267 182.994 45.68C183.234 44.9333 183.46 44.2533 183.674 43.64C183.887 43 184.047 42.6 184.154 42.44C184.287 41.9333 184.46 41.5067 184.674 41.16C184.914 40.8133 185.14 40.4667 185.354 40.12C185.567 39.7733 185.714 39.3467 185.794 38.84C186.087 38.7067 186.26 38.56 186.314 38.4C186.367 38.2133 186.487 38 186.674 37.76C186.86 38.24 186.914 38.7467 186.834 39.28C186.78 39.8133 186.7 40.32 186.594 40.8C186.567 40.9333 186.54 41.0533 186.514 41.16C186.514 41.2667 186.5 41.3733 186.474 41.48C186.527 41.64 186.46 42.0267 186.274 42.64C186.087 43.2533 185.874 43.96 185.634 44.76C185.394 45.4533 185.154 46.1733 184.914 46.92C184.7 47.64 184.527 48.3067 184.394 48.92C184.287 49.5333 184.26 49.9867 184.314 50.28C184.287 50.4933 184.247 50.8 184.194 51.2C184.14 51.6 184.087 51.8933 184.034 52.08C184.274 52.2933 184.647 52.4 185.154 52.4C185.66 52.3733 186.207 52.3067 186.794 52.2C187.38 52.0933 187.9 51.9867 188.354 51.88C188.46 51.8533 188.554 51.84 188.634 51.84C188.74 51.8133 188.834 51.7867 188.914 51.76ZM191.874 32.64C191.82 32.8267 191.754 33.0133 191.674 33.2C191.594 33.3867 191.554 33.6267 191.554 33.92C191.447 33.92 191.3 34.04 191.114 34.28C190.927 34.4933 190.62 34.7067 190.194 34.92C189.794 35.1333 189.154 35.24 188.274 35.24C187.927 35.0533 187.66 34.8 187.474 34.48C187.287 34.16 187.087 33.8667 186.874 33.6C187.007 32.4267 187.287 31.5333 187.714 30.92C188.167 30.3067 188.98 30.1867 190.154 30.56C190.42 30.5333 190.674 30.6667 190.914 30.96C191.154 31.2267 191.367 31.5333 191.554 31.88C191.74 32.2267 191.847 32.48 191.874 32.64Z" fill="#F6EBDF"/>
<path d="M213.649 45.24C213.676 45.72 213.503 46.12 213.129 46.44C212.756 46.7333 212.276 46.9733 211.689 47.16C211.129 47.3467 210.543 47.48 209.929 47.56C209.316 47.64 208.783 47.6933 208.329 47.72C207.716 47.7467 207.156 47.7067 206.649 47.6C206.169 47.4933 205.689 47.3867 205.209 47.28C205.076 47.2533 204.943 47.2267 204.809 47.2C204.676 47.1467 204.543 47.1067 204.409 47.08C203.823 46.9467 203.156 46.8267 202.409 46.72C201.689 46.5867 201.116 46.3867 200.689 46.12C200.449 46.3867 200.289 46.7867 200.209 47.32C200.129 47.8267 200.116 48.3733 200.169 48.96C200.249 49.52 200.383 50.0267 200.569 50.48C200.783 50.9067 201.036 51.16 201.329 51.24C201.703 51.2933 202.023 51.4267 202.289 51.64C202.583 51.8267 202.863 52.04 203.129 52.28C203.476 52.5733 203.836 52.8533 204.209 53.12C204.609 53.36 205.089 53.44 205.649 53.36C205.836 53.76 205.996 53.9733 206.129 54C206.289 54 206.449 53.9733 206.609 53.92C206.743 53.8667 206.849 53.84 206.929 53.84C207.303 53.9467 207.743 54.1733 208.249 54.52C208.756 54.8667 209.103 55.28 209.289 55.76C208.916 56.08 208.529 56.2533 208.129 56.28C207.729 56.3067 207.303 56.3067 206.849 56.28C206.529 56.2533 206.196 56.24 205.849 56.24C205.503 56.24 205.143 56.28 204.769 56.36C204.663 56.1467 204.463 56.0267 204.169 56C203.903 55.9467 203.609 55.8667 203.289 55.76C202.969 55.6533 202.689 55.4 202.449 55C201.516 54.7867 200.649 54.3067 199.849 53.56C199.049 52.7867 198.316 52.0533 197.649 51.36C197.543 50.9867 197.423 50.6267 197.289 50.28C197.183 49.9333 196.983 49.6667 196.689 49.48C196.743 49.1867 196.743 48.96 196.689 48.8C196.663 48.64 196.623 48.48 196.569 48.32C196.543 48.2667 196.516 48.2133 196.489 48.16C196.463 48.08 196.436 47.9867 196.409 47.88C196.729 46.6267 197.223 45.4 197.889 44.2C198.556 43 199.396 41.88 200.409 40.84C200.809 40.4133 201.289 39.9733 201.849 39.52C202.436 39.04 203.036 38.6133 203.649 38.24C204.289 37.8667 204.876 37.6533 205.409 37.6C205.623 37.5733 205.823 37.5867 206.009 37.64C206.223 37.6667 206.436 37.7067 206.649 37.76C206.916 37.84 207.183 37.9067 207.449 37.96C207.743 37.9867 208.036 37.9467 208.329 37.84C209.129 38.3467 209.876 38.84 210.569 39.32C211.263 39.8 211.676 40.48 211.809 41.36C212.236 41.5467 212.516 41.8933 212.649 42.4C212.809 42.88 213.023 43.32 213.289 43.72C213.023 43.9333 212.916 44.2267 212.969 44.6C213.049 44.9733 213.276 45.1867 213.649 45.24ZM209.609 44.52C209.689 44.1467 209.649 43.7867 209.489 43.44C209.329 43.0667 209.143 42.7067 208.929 42.36C208.796 42.12 208.676 41.9067 208.569 41.72C208.489 41.5067 208.436 41.3067 208.409 41.12C208.036 41.0667 207.743 40.9333 207.529 40.72C207.316 40.48 207.023 40.28 206.649 40.12C205.423 40.6533 204.263 41.36 203.169 42.24C202.103 43.0933 201.329 44.1333 200.849 45.36C201.489 45.2267 202.169 45.16 202.889 45.16C203.636 45.16 204.369 45.1733 205.089 45.2C205.836 45.2267 206.556 45.24 207.249 45.24C207.943 45.24 208.556 45.16 209.089 45C209.089 44.76 209.156 44.6533 209.289 44.68C209.449 44.7067 209.556 44.6533 209.609 44.52Z" fill="#F6EBDF"/>
<path d="M237.022 43.28C236.729 43.36 236.462 43.5067 236.222 43.72C235.982 43.9333 235.742 44.1467 235.502 44.36C235.289 44.5467 235.009 44.64 234.662 44.64C234.315 44.2133 234.062 43.6933 233.902 43.08C233.769 42.4667 233.609 41.8667 233.422 41.28C233.235 40.6933 232.889 40.2667 232.382 40C232.169 40.0267 231.875 40.1333 231.502 40.32C231.155 40.5067 230.835 40.72 230.542 40.96C230.249 41.1733 230.115 41.4 230.142 41.64C229.902 41.7467 229.635 41.9333 229.342 42.2C229.075 42.4667 228.862 42.7333 228.702 43C228.542 43.2667 228.489 43.48 228.542 43.64C228.329 43.72 228.182 43.88 228.102 44.12C228.022 44.3333 227.929 44.5467 227.822 44.76C227.742 44.9733 227.569 45.1067 227.302 45.16C227.302 45.24 227.329 45.32 227.382 45.4C227.462 45.5067 227.462 45.5867 227.382 45.64C226.769 46.4133 226.262 47.3867 225.862 48.56C225.462 49.7067 225.089 50.9067 224.742 52.16C224.395 53.3867 224.009 54.52 223.582 55.56C223.289 55.7467 223.009 55.9467 222.742 56.16C222.502 56.4 222.235 56.6133 221.942 56.8C221.462 56.5067 221.009 56.1867 220.582 55.84C220.155 55.4933 219.782 55.1067 219.462 54.68C219.809 54.5467 219.982 54.3333 219.982 54.04C220.009 53.72 220.022 53.4 220.022 53.08C220.049 52.76 220.235 52.5467 220.582 52.44C220.902 50.8933 221.155 49.1867 221.342 47.32C221.555 45.4267 221.795 43.5467 222.062 41.68C222.329 39.8133 222.689 38.1333 223.142 36.64C223.409 36.9067 223.569 37.24 223.622 37.64C223.702 38.04 223.755 38.4133 223.782 38.76C223.862 39.8 223.889 40.8 223.862 41.76C223.862 42.72 223.915 43.68 224.022 44.64C225.169 43.2267 226.315 41.8933 227.462 40.64C228.609 39.3867 229.889 38.2533 231.302 37.24C232.315 36.8933 233.195 36.8533 233.942 37.12C234.715 37.36 235.342 37.7733 235.822 38.36C236.355 38.9733 236.715 39.7333 236.902 40.64C237.115 41.52 237.155 42.4 237.022 43.28Z" fill="#F6EBDF"/>
<path d="M42.1872 64.5097C42.1112 64.2338 42.161 64.0642 42.3366 64.0011C42.4965 63.9348 42.658 63.9015 42.8212 63.9011C43.3389 63.9218 43.8898 63.9817 44.4737 64.0807C45.0544 64.1955 45.6337 64.318 46.2113 64.4485C46.8361 64.5882 47.4561 64.7107 48.0714 64.8159C48.6679 64.9337 49.2423 64.9983 49.7945 65.0095C50.3075 64.3117 50.7952 63.5355 51.2576 62.6809C51.7042 61.8232 52.1665 60.9278 52.6444 59.9947C52.8818 59.536 53.1802 58.9752 53.5394 58.3123C53.883 57.6462 54.2109 56.9771 54.5231 56.3049C54.8196 55.6295 55.0269 55.0344 55.1449 54.5195C55.1573 54.4567 55.143 54.3642 55.1019 54.2419C55.0577 54.1353 55.4232 53.0861 55.5 53C55.1383 53.385 55.9827 53.2854 55.5 53.5C55.0173 53.7145 55.4482 53.2949 55 53.5C54.8109 53.1364 55.2715 53.7484 55.5 53.5C55.1992 53.7015 55.7254 53.2672 55.5 53.5C55.6316 53.4118 55.6104 53.5727 55.7451 53.4688C55.8767 53.3807 54.9281 53.6162 55 53.5C54.9153 53.5159 55.0816 53.4998 55 53.5C55.0847 53.4841 55.4122 53.0316 55.5 53C55.6694 52.9682 55.2155 53.1217 55.435 53.0836C55.6358 53.058 55.3123 52.9242 55.5 53C55.9191 53.1491 56.1153 52.8683 56.4079 53.2033C56.6848 53.5353 56.9428 53.7983 57.1817 53.9922C57.0563 54.049 57 54.1276 57.0128 54.228C57.0068 54.341 56.9427 54.418 56.8204 54.4591C56.6778 55.1811 56.474 55.9237 56.2091 56.6868C55.9285 57.4469 55.6258 58.1944 55.3012 58.9294C54.9766 59.6644 54.6723 60.3382 54.3882 60.9508C54.0041 61.7393 53.6388 62.5152 53.2923 63.2785C52.9301 64.0388 52.615 64.8083 52.347 65.5871C52.9656 65.7582 53.5982 65.8995 54.2448 66.0109C54.8727 66.135 55.4943 66.2496 56.1095 66.3548C56.9634 66.4909 57.7905 66.638 58.5911 66.7961C59.3728 66.9668 60.07 67.1943 60.6825 67.4784C60.623 67.5318 60.6122 67.5868 60.6499 67.6432C60.6877 67.6996 60.7271 67.7481 60.768 67.7888C60.8058 67.8452 60.8372 67.8922 60.8624 67.9298C60.8719 67.9643 60.8171 67.9942 60.6979 68.0196C60.1617 68.1746 59.5391 68.2718 58.83 68.3111C58.1021 68.3631 57.3522 68.3617 56.5801 68.307C55.805 68.2681 55.0533 68.193 54.325 68.0817C53.5937 67.9862 52.9486 67.8669 52.3897 67.7239C52.2798 67.7022 52.1543 67.6774 52.013 67.6495C51.8717 67.6216 51.7226 67.5921 51.5656 67.5611C51.2329 67.5117 50.8954 67.445 50.5532 67.3611C50.2079 67.2929 49.9739 67.1977 49.8512 67.0757C49.3743 67.0956 48.8298 67.0451 48.2176 66.9242C47.6023 66.819 46.9619 66.6761 46.2962 66.4957C45.6148 66.3122 44.9695 66.1113 44.3603 65.8931C43.7353 65.6718 43.181 65.4644 42.6973 65.271C42.5934 65.1364 42.5492 64.989 42.5645 64.8289C42.5767 64.6845 42.4509 64.5782 42.1872 64.5097Z" fill="#F6EBDF"/>
<path d="M56.0076 50.687L56.8114 45.0601C56.8464 44.8154 57.1457 44.7156 57.3205 44.8904L58.1872 45.7571C58.2246 45.7945 58.2712 45.8214 58.3223 45.8349L59.5608 46.164C59.5992 46.1742 59.6392 46.1767 59.6785 46.1713L62.244 45.8203C62.2735 45.8163 62.3034 45.8167 62.3328 45.8214L64.0169 46.0952C64.2461 46.1324 64.3479 46.4047 64.1994 46.5831L62.1756 49.0159C62.1587 49.0363 62.1391 49.0543 62.1174 49.0696L57.8726 52.0507C57.8221 52.0861 57.7619 52.1052 57.7002 52.1052L56.6631 52.1052C56.534 52.1052 56.4194 52.0225 56.3785 51.9L56.0199 50.8243C56.0052 50.7801 56.001 50.7331 56.0076 50.687Z" fill="#F03B5D"/>
</svg>
